<?xml version="1.0" standalone="no"?>
<!DOCTYPE svg PUBLIC "-//W3C//DTD SVG 20010904//EN"
 "http://www.w3.org/TR/2001/REC-SVG-20010904/DTD/svg10.dtd">
<svg version="1.0" xmlns="http://www.w3.org/2000/svg"
 width="1600.000000pt" height="2846.000000pt" viewBox="0 0 1600.000000 2846.000000"
 preserveAspectRatio="xMidYMid meet">

<g transform="translate(0.000000,2846.000000) scale(0.100000,-0.100000)"
fill="#000000" stroke="none">
<path d="M0 14230 l0 -14230 8000 0 8000 0 0 14230 0 14230 -8000 0 -8000 0 0
-14230z m6278 13296 c144 -39 256 -168 281 -325 27 -165 -67 -323 -239 -405
-57 -27 -75 -31 -145 -30 -104 1 -177 29 -248 94 -233 213 -141 582 164 664
69 19 121 19 187 2z m-2057 -94 c18 -15 23 -29 23 -71 1 -66 -24 -91 -90 -91
-72 0 -101 51 -78 136 12 43 103 59 145 26z m3633 2 c20 -20 21 -113 2 -140
-20 -26 -117 -27 -143 -1 -22 22 -25 116 -4 140 18 23 123 24 145 1z m-5506
-99 c494 -97 910 -463 1070 -940 56 -169 67 -242 67 -450 -1 -170 -4 -202 -27
-302 -132 -559 -566 -976 -1134 -1090 -65 -13 -134 -17 -259 -17 -146 1 -186
4 -281 26 -287 67 -518 200 -726 416 -282 295 -427 700 -388 1087 33 328 159
610 376 844 220 236 512 389 841 441 85 13 364 4 461 -15z m-1474 -14225 c93
-96 235 -241 314 -322 l145 -147 -225 -233 c-124 -128 -311 -321 -416 -428
l-191 -195 0 855 -1 855 102 -105 c57 -58 179 -184 272 -280z"/>
<path d="M1830 27240 c-182 -32 -370 -111 -506 -211 -85 -63 -237 -212 -296
-291 -183 -248 -270 -496 -269 -773 0 -155 18 -266 67 -413 156 -467 469 -766
916 -876 480 -118 934 5 1268 343 197 199 311 417 366 696 23 117 23 337 1
460 -77 427 -372 804 -764 975 -232 102 -524 136 -783 90z m494 -46 c500 -95
885 -478 1003 -996 25 -113 22 -353 -6 -488 -54 -254 -167 -472 -341 -653
-163 -172 -355 -283 -600 -349 -75 -20 -109 -22 -285 -22 -184 -1 -208 2 -307
26 -476 120 -818 454 -941 916 -29 112 -31 126 -31 322 -1 226 11 297 74 458
67 167 223 393 340 489 233 193 467 292 750 317 75 6 260 -4 344 -20z"/>
<path d="M920 25882 c0 -134 29 -307 71 -422 121 -329 486 -622 879 -705 82
-17 274 -20 370 -5 158 26 370 113 535 222 100 65 241 205 301 298 61 95 108
200 128 287 17 78 22 183 7 183 -5 0 -35 -39 -67 -87 -82 -126 -236 -275 -347
-337 -312 -174 -653 -232 -1002 -171 -455 79 -718 296 -830 681 -32 110 -45
126 -45 56z"/>
</g>
</svg>
