<?xml version="1.0" standalone="no"?>
<!DOCTYPE svg PUBLIC "-//W3C//DTD SVG 20010904//EN"
 "http://www.w3.org/TR/2001/REC-SVG-20010904/DTD/svg10.dtd">
<svg version="1.0" xmlns="http://www.w3.org/2000/svg"
 width="920.000000pt" height="1017.000000pt" viewBox="0 0 920.000000 1017.000000"
 preserveAspectRatio="xMidYMid meet">

<g transform="translate(0.000000,1017.000000) scale(0.100000,-0.100000)"
fill="#000000" stroke="none">
<path d="M3590 8463 c-1 -5 0 -83 0 -175 l1 -168 -351 0 -350 0 0 -175 0 -175
-171 -2 -171 -3 -1 -167 c-1 -109 -5 -168 -12 -168 -5 -1 -82 -2 -170 -3
l-160 -2 -3 -172 -2 -173 -175 0 -175 0 0 -345 c0 -269 -3 -345 -12 -346 -7
-1 -85 -2 -173 -3 l-160 -1 0 -1040 0 -1040 170 0 170 0 3 -347 2 -348 175 0
175 0 2 -172 3 -173 160 0 c88 0 165 -4 172 -8 9 -6 12 -52 10 -170 l-2 -162
173 -3 172 -2 0 -175 0 -175 348 -2 347 -3 1 -170 2 -170 1038 0 1039 0 2 170
2 170 345 3 346 2 0 175 0 175 175 0 175 0 0 173 0 172 166 0 c91 0 168 3 171
8 3 5 6 83 6 173 l1 164 173 0 173 0 2 348 3 347 170 1 170 0 0 1040 0 1039
-170 0 -170 1 -3 347 -2 347 -173 2 -172 3 0 170 -1 170 -169 2 -170 2 -3 170
-2 171 -173 2 -172 3 -3 173 -2 172 -345 0 c-269 0 -345 3 -345 13 -1 6 -2 84
-3 172 l-2 160 -1037 3 c-571 1 -1038 -1 -1038 -5z m1040 -4333 l0 -520 863 2
862 3 3 340 c1 186 6 343 11 348 5 5 152 6 350 2 l341 -8 -3 -341 -2 -341
-172 -3 -173 -2 -2 -173 -3 -172 -172 -3 -173 -2 0 -170 0 -170 -342 -2 -343
-3 -5 -170 -5 -170 -1040 0 -1040 0 0 166 1 167 -348 7 -348 8 -2 169 -3 170
-172 -1 -172 -2 0 163 c1 90 0 169 0 175 -1 9 -46 13 -173 15 l-173 3 0 338
c0 186 3 343 6 348 3 6 77 8 175 7 l169 -3 3 -172 2 -173 345 0 345 0 0 -175
0 -175 170 0 170 0 0 520 0 520 525 0 525 0 0 -520z"/>
<path d="M3592 3438 l3 -173 508 0 c280 0 512 2 515 5 4 3 6 80 4 173 l-3 167
-515 0 -514 0 2 -172z"/>
</g>
</svg>
